G75*
%MOIN*%
%OFA0B0*%
%FSLAX25Y25*%
%IPPOS*%
%LPD*%
%AMOC8*
5,1,8,0,0,1.08239X$1,22.5*
%
%ADD10C,0.00800*%
%ADD11C,0.01000*%
%ADD12C,0.01100*%
%ADD13C,0.00300*%
D10*
X0083500Y0048333D02*
X0083500Y0123333D01*
X0183500Y0123333D01*
X0183500Y0048333D01*
X0185500Y0048333D02*
X0185500Y0123333D01*
X0285500Y0123333D01*
X0285500Y0048333D01*
X0287500Y0048333D02*
X0287500Y0123333D01*
X0387500Y0123333D01*
X0387500Y0048333D01*
X0387500Y0048334D02*
X0387510Y0047984D01*
X0387510Y0047633D01*
X0387503Y0047283D01*
X0387486Y0046933D01*
X0387462Y0046584D01*
X0387429Y0046235D01*
X0387387Y0045887D01*
X0387337Y0045541D01*
X0387279Y0045195D01*
X0387212Y0044851D01*
X0387137Y0044509D01*
X0387054Y0044169D01*
X0386962Y0043831D01*
X0386863Y0043495D01*
X0386755Y0043162D01*
X0386639Y0042831D01*
X0386515Y0042504D01*
X0386383Y0042179D01*
X0386244Y0041858D01*
X0386097Y0041540D01*
X0385942Y0041226D01*
X0385779Y0040916D01*
X0385609Y0040609D01*
X0385432Y0040307D01*
X0385247Y0040010D01*
X0385055Y0039717D01*
X0384857Y0039428D01*
X0384651Y0039145D01*
X0384438Y0038866D01*
X0384219Y0038593D01*
X0383993Y0038326D01*
X0383761Y0038063D01*
X0383522Y0037807D01*
X0383278Y0037556D01*
X0383027Y0037312D01*
X0382771Y0037073D01*
X0382508Y0036841D01*
X0382241Y0036615D01*
X0381968Y0036396D01*
X0381689Y0036183D01*
X0381406Y0035977D01*
X0381117Y0035779D01*
X0380824Y0035587D01*
X0380527Y0035402D01*
X0380225Y0035225D01*
X0379918Y0035055D01*
X0379608Y0034892D01*
X0379294Y0034737D01*
X0378976Y0034590D01*
X0378655Y0034451D01*
X0378330Y0034319D01*
X0378003Y0034195D01*
X0377672Y0034079D01*
X0377339Y0033971D01*
X0377003Y0033872D01*
X0376665Y0033780D01*
X0376325Y0033697D01*
X0375983Y0033622D01*
X0375639Y0033555D01*
X0375293Y0033497D01*
X0374947Y0033447D01*
X0374599Y0033405D01*
X0374250Y0033372D01*
X0373901Y0033348D01*
X0373551Y0033331D01*
X0373201Y0033324D01*
X0372850Y0033324D01*
X0372500Y0033334D01*
X0372500Y0033333D02*
X0302500Y0033333D01*
X0302500Y0033334D02*
X0302150Y0033324D01*
X0301799Y0033324D01*
X0301449Y0033331D01*
X0301099Y0033348D01*
X0300750Y0033372D01*
X0300401Y0033405D01*
X0300053Y0033447D01*
X0299707Y0033497D01*
X0299361Y0033555D01*
X0299017Y0033622D01*
X0298675Y0033697D01*
X0298335Y0033780D01*
X0297997Y0033872D01*
X0297661Y0033971D01*
X0297328Y0034079D01*
X0296997Y0034195D01*
X0296670Y0034319D01*
X0296345Y0034451D01*
X0296024Y0034590D01*
X0295706Y0034737D01*
X0295392Y0034892D01*
X0295082Y0035055D01*
X0294775Y0035225D01*
X0294473Y0035402D01*
X0294176Y0035587D01*
X0293883Y0035779D01*
X0293594Y0035977D01*
X0293311Y0036183D01*
X0293032Y0036396D01*
X0292759Y0036615D01*
X0292492Y0036841D01*
X0292229Y0037073D01*
X0291973Y0037312D01*
X0291722Y0037556D01*
X0291478Y0037807D01*
X0291239Y0038063D01*
X0291007Y0038326D01*
X0290781Y0038593D01*
X0290562Y0038866D01*
X0290349Y0039145D01*
X0290143Y0039428D01*
X0289945Y0039717D01*
X0289753Y0040010D01*
X0289568Y0040307D01*
X0289391Y0040609D01*
X0289221Y0040916D01*
X0289058Y0041226D01*
X0288903Y0041540D01*
X0288756Y0041858D01*
X0288617Y0042179D01*
X0288485Y0042504D01*
X0288361Y0042831D01*
X0288245Y0043162D01*
X0288137Y0043495D01*
X0288038Y0043831D01*
X0287946Y0044169D01*
X0287863Y0044509D01*
X0287788Y0044851D01*
X0287721Y0045195D01*
X0287663Y0045541D01*
X0287613Y0045887D01*
X0287571Y0046235D01*
X0287538Y0046584D01*
X0287514Y0046933D01*
X0287497Y0047283D01*
X0287490Y0047633D01*
X0287490Y0047984D01*
X0287500Y0048334D01*
X0285500Y0048334D02*
X0285510Y0047984D01*
X0285510Y0047633D01*
X0285503Y0047283D01*
X0285486Y0046933D01*
X0285462Y0046584D01*
X0285429Y0046235D01*
X0285387Y0045887D01*
X0285337Y0045541D01*
X0285279Y0045195D01*
X0285212Y0044851D01*
X0285137Y0044509D01*
X0285054Y0044169D01*
X0284962Y0043831D01*
X0284863Y0043495D01*
X0284755Y0043162D01*
X0284639Y0042831D01*
X0284515Y0042504D01*
X0284383Y0042179D01*
X0284244Y0041858D01*
X0284097Y0041540D01*
X0283942Y0041226D01*
X0283779Y0040916D01*
X0283609Y0040609D01*
X0283432Y0040307D01*
X0283247Y0040010D01*
X0283055Y0039717D01*
X0282857Y0039428D01*
X0282651Y0039145D01*
X0282438Y0038866D01*
X0282219Y0038593D01*
X0281993Y0038326D01*
X0281761Y0038063D01*
X0281522Y0037807D01*
X0281278Y0037556D01*
X0281027Y0037312D01*
X0280771Y0037073D01*
X0280508Y0036841D01*
X0280241Y0036615D01*
X0279968Y0036396D01*
X0279689Y0036183D01*
X0279406Y0035977D01*
X0279117Y0035779D01*
X0278824Y0035587D01*
X0278527Y0035402D01*
X0278225Y0035225D01*
X0277918Y0035055D01*
X0277608Y0034892D01*
X0277294Y0034737D01*
X0276976Y0034590D01*
X0276655Y0034451D01*
X0276330Y0034319D01*
X0276003Y0034195D01*
X0275672Y0034079D01*
X0275339Y0033971D01*
X0275003Y0033872D01*
X0274665Y0033780D01*
X0274325Y0033697D01*
X0273983Y0033622D01*
X0273639Y0033555D01*
X0273293Y0033497D01*
X0272947Y0033447D01*
X0272599Y0033405D01*
X0272250Y0033372D01*
X0271901Y0033348D01*
X0271551Y0033331D01*
X0271201Y0033324D01*
X0270850Y0033324D01*
X0270500Y0033334D01*
X0270500Y0033333D02*
X0200500Y0033333D01*
X0200500Y0033334D02*
X0200150Y0033324D01*
X0199799Y0033324D01*
X0199449Y0033331D01*
X0199099Y0033348D01*
X0198750Y0033372D01*
X0198401Y0033405D01*
X0198053Y0033447D01*
X0197707Y0033497D01*
X0197361Y0033555D01*
X0197017Y0033622D01*
X0196675Y0033697D01*
X0196335Y0033780D01*
X0195997Y0033872D01*
X0195661Y0033971D01*
X0195328Y0034079D01*
X0194997Y0034195D01*
X0194670Y0034319D01*
X0194345Y0034451D01*
X0194024Y0034590D01*
X0193706Y0034737D01*
X0193392Y0034892D01*
X0193082Y0035055D01*
X0192775Y0035225D01*
X0192473Y0035402D01*
X0192176Y0035587D01*
X0191883Y0035779D01*
X0191594Y0035977D01*
X0191311Y0036183D01*
X0191032Y0036396D01*
X0190759Y0036615D01*
X0190492Y0036841D01*
X0190229Y0037073D01*
X0189973Y0037312D01*
X0189722Y0037556D01*
X0189478Y0037807D01*
X0189239Y0038063D01*
X0189007Y0038326D01*
X0188781Y0038593D01*
X0188562Y0038866D01*
X0188349Y0039145D01*
X0188143Y0039428D01*
X0187945Y0039717D01*
X0187753Y0040010D01*
X0187568Y0040307D01*
X0187391Y0040609D01*
X0187221Y0040916D01*
X0187058Y0041226D01*
X0186903Y0041540D01*
X0186756Y0041858D01*
X0186617Y0042179D01*
X0186485Y0042504D01*
X0186361Y0042831D01*
X0186245Y0043162D01*
X0186137Y0043495D01*
X0186038Y0043831D01*
X0185946Y0044169D01*
X0185863Y0044509D01*
X0185788Y0044851D01*
X0185721Y0045195D01*
X0185663Y0045541D01*
X0185613Y0045887D01*
X0185571Y0046235D01*
X0185538Y0046584D01*
X0185514Y0046933D01*
X0185497Y0047283D01*
X0185490Y0047633D01*
X0185490Y0047984D01*
X0185500Y0048334D01*
X0183500Y0048334D02*
X0183510Y0047984D01*
X0183510Y0047633D01*
X0183503Y0047283D01*
X0183486Y0046933D01*
X0183462Y0046584D01*
X0183429Y0046235D01*
X0183387Y0045887D01*
X0183337Y0045541D01*
X0183279Y0045195D01*
X0183212Y0044851D01*
X0183137Y0044509D01*
X0183054Y0044169D01*
X0182962Y0043831D01*
X0182863Y0043495D01*
X0182755Y0043162D01*
X0182639Y0042831D01*
X0182515Y0042504D01*
X0182383Y0042179D01*
X0182244Y0041858D01*
X0182097Y0041540D01*
X0181942Y0041226D01*
X0181779Y0040916D01*
X0181609Y0040609D01*
X0181432Y0040307D01*
X0181247Y0040010D01*
X0181055Y0039717D01*
X0180857Y0039428D01*
X0180651Y0039145D01*
X0180438Y0038866D01*
X0180219Y0038593D01*
X0179993Y0038326D01*
X0179761Y0038063D01*
X0179522Y0037807D01*
X0179278Y0037556D01*
X0179027Y0037312D01*
X0178771Y0037073D01*
X0178508Y0036841D01*
X0178241Y0036615D01*
X0177968Y0036396D01*
X0177689Y0036183D01*
X0177406Y0035977D01*
X0177117Y0035779D01*
X0176824Y0035587D01*
X0176527Y0035402D01*
X0176225Y0035225D01*
X0175918Y0035055D01*
X0175608Y0034892D01*
X0175294Y0034737D01*
X0174976Y0034590D01*
X0174655Y0034451D01*
X0174330Y0034319D01*
X0174003Y0034195D01*
X0173672Y0034079D01*
X0173339Y0033971D01*
X0173003Y0033872D01*
X0172665Y0033780D01*
X0172325Y0033697D01*
X0171983Y0033622D01*
X0171639Y0033555D01*
X0171293Y0033497D01*
X0170947Y0033447D01*
X0170599Y0033405D01*
X0170250Y0033372D01*
X0169901Y0033348D01*
X0169551Y0033331D01*
X0169201Y0033324D01*
X0168850Y0033324D01*
X0168500Y0033334D01*
X0168500Y0033333D02*
X0098500Y0033333D01*
X0098500Y0033334D02*
X0098150Y0033324D01*
X0097799Y0033324D01*
X0097449Y0033331D01*
X0097099Y0033348D01*
X0096750Y0033372D01*
X0096401Y0033405D01*
X0096053Y0033447D01*
X0095707Y0033497D01*
X0095361Y0033555D01*
X0095017Y0033622D01*
X0094675Y0033697D01*
X0094335Y0033780D01*
X0093997Y0033872D01*
X0093661Y0033971D01*
X0093328Y0034079D01*
X0092997Y0034195D01*
X0092670Y0034319D01*
X0092345Y0034451D01*
X0092024Y0034590D01*
X0091706Y0034737D01*
X0091392Y0034892D01*
X0091082Y0035055D01*
X0090775Y0035225D01*
X0090473Y0035402D01*
X0090176Y0035587D01*
X0089883Y0035779D01*
X0089594Y0035977D01*
X0089311Y0036183D01*
X0089032Y0036396D01*
X0088759Y0036615D01*
X0088492Y0036841D01*
X0088229Y0037073D01*
X0087973Y0037312D01*
X0087722Y0037556D01*
X0087478Y0037807D01*
X0087239Y0038063D01*
X0087007Y0038326D01*
X0086781Y0038593D01*
X0086562Y0038866D01*
X0086349Y0039145D01*
X0086143Y0039428D01*
X0085945Y0039717D01*
X0085753Y0040010D01*
X0085568Y0040307D01*
X0085391Y0040609D01*
X0085221Y0040916D01*
X0085058Y0041226D01*
X0084903Y0041540D01*
X0084756Y0041858D01*
X0084617Y0042179D01*
X0084485Y0042504D01*
X0084361Y0042831D01*
X0084245Y0043162D01*
X0084137Y0043495D01*
X0084038Y0043831D01*
X0083946Y0044169D01*
X0083863Y0044509D01*
X0083788Y0044851D01*
X0083721Y0045195D01*
X0083663Y0045541D01*
X0083613Y0045887D01*
X0083571Y0046235D01*
X0083538Y0046584D01*
X0083514Y0046933D01*
X0083497Y0047283D01*
X0083490Y0047633D01*
X0083490Y0047984D01*
X0083500Y0048334D01*
X0098500Y0125333D02*
X0168500Y0125333D01*
X0168500Y0125334D02*
X0168850Y0125324D01*
X0169201Y0125324D01*
X0169551Y0125331D01*
X0169901Y0125348D01*
X0170250Y0125372D01*
X0170599Y0125405D01*
X0170947Y0125447D01*
X0171293Y0125497D01*
X0171639Y0125555D01*
X0171983Y0125622D01*
X0172325Y0125697D01*
X0172665Y0125780D01*
X0173003Y0125872D01*
X0173339Y0125971D01*
X0173672Y0126079D01*
X0174003Y0126195D01*
X0174330Y0126319D01*
X0174655Y0126451D01*
X0174976Y0126590D01*
X0175294Y0126737D01*
X0175608Y0126892D01*
X0175918Y0127055D01*
X0176225Y0127225D01*
X0176527Y0127402D01*
X0176824Y0127587D01*
X0177117Y0127779D01*
X0177406Y0127977D01*
X0177689Y0128183D01*
X0177968Y0128396D01*
X0178241Y0128615D01*
X0178508Y0128841D01*
X0178771Y0129073D01*
X0179027Y0129312D01*
X0179278Y0129556D01*
X0179522Y0129807D01*
X0179761Y0130063D01*
X0179993Y0130326D01*
X0180219Y0130593D01*
X0180438Y0130866D01*
X0180651Y0131145D01*
X0180857Y0131428D01*
X0181055Y0131717D01*
X0181247Y0132010D01*
X0181432Y0132307D01*
X0181609Y0132609D01*
X0181779Y0132916D01*
X0181942Y0133226D01*
X0182097Y0133540D01*
X0182244Y0133858D01*
X0182383Y0134179D01*
X0182515Y0134504D01*
X0182639Y0134831D01*
X0182755Y0135162D01*
X0182863Y0135495D01*
X0182962Y0135831D01*
X0183054Y0136169D01*
X0183137Y0136509D01*
X0183212Y0136851D01*
X0183279Y0137195D01*
X0183337Y0137541D01*
X0183387Y0137887D01*
X0183429Y0138235D01*
X0183462Y0138584D01*
X0183486Y0138933D01*
X0183503Y0139283D01*
X0183510Y0139633D01*
X0183510Y0139984D01*
X0183500Y0140334D01*
X0183500Y0140333D02*
X0183500Y0215333D01*
X0083500Y0215333D01*
X0083500Y0140333D01*
X0083500Y0140334D02*
X0083490Y0139984D01*
X0083490Y0139633D01*
X0083497Y0139283D01*
X0083514Y0138933D01*
X0083538Y0138584D01*
X0083571Y0138235D01*
X0083613Y0137887D01*
X0083663Y0137541D01*
X0083721Y0137195D01*
X0083788Y0136851D01*
X0083863Y0136509D01*
X0083946Y0136169D01*
X0084038Y0135831D01*
X0084137Y0135495D01*
X0084245Y0135162D01*
X0084361Y0134831D01*
X0084485Y0134504D01*
X0084617Y0134179D01*
X0084756Y0133858D01*
X0084903Y0133540D01*
X0085058Y0133226D01*
X0085221Y0132916D01*
X0085391Y0132609D01*
X0085568Y0132307D01*
X0085753Y0132010D01*
X0085945Y0131717D01*
X0086143Y0131428D01*
X0086349Y0131145D01*
X0086562Y0130866D01*
X0086781Y0130593D01*
X0087007Y0130326D01*
X0087239Y0130063D01*
X0087478Y0129807D01*
X0087722Y0129556D01*
X0087973Y0129312D01*
X0088229Y0129073D01*
X0088492Y0128841D01*
X0088759Y0128615D01*
X0089032Y0128396D01*
X0089311Y0128183D01*
X0089594Y0127977D01*
X0089883Y0127779D01*
X0090176Y0127587D01*
X0090473Y0127402D01*
X0090775Y0127225D01*
X0091082Y0127055D01*
X0091392Y0126892D01*
X0091706Y0126737D01*
X0092024Y0126590D01*
X0092345Y0126451D01*
X0092670Y0126319D01*
X0092997Y0126195D01*
X0093328Y0126079D01*
X0093661Y0125971D01*
X0093997Y0125872D01*
X0094335Y0125780D01*
X0094675Y0125697D01*
X0095017Y0125622D01*
X0095361Y0125555D01*
X0095707Y0125497D01*
X0096053Y0125447D01*
X0096401Y0125405D01*
X0096750Y0125372D01*
X0097099Y0125348D01*
X0097449Y0125331D01*
X0097799Y0125324D01*
X0098150Y0125324D01*
X0098500Y0125334D01*
X0185500Y0140333D02*
X0185500Y0215333D01*
X0285500Y0215333D01*
X0285500Y0140333D01*
X0287500Y0140333D02*
X0287500Y0215333D01*
X0387500Y0215333D01*
X0387500Y0140333D01*
X0387500Y0140334D02*
X0387510Y0139984D01*
X0387510Y0139633D01*
X0387503Y0139283D01*
X0387486Y0138933D01*
X0387462Y0138584D01*
X0387429Y0138235D01*
X0387387Y0137887D01*
X0387337Y0137541D01*
X0387279Y0137195D01*
X0387212Y0136851D01*
X0387137Y0136509D01*
X0387054Y0136169D01*
X0386962Y0135831D01*
X0386863Y0135495D01*
X0386755Y0135162D01*
X0386639Y0134831D01*
X0386515Y0134504D01*
X0386383Y0134179D01*
X0386244Y0133858D01*
X0386097Y0133540D01*
X0385942Y0133226D01*
X0385779Y0132916D01*
X0385609Y0132609D01*
X0385432Y0132307D01*
X0385247Y0132010D01*
X0385055Y0131717D01*
X0384857Y0131428D01*
X0384651Y0131145D01*
X0384438Y0130866D01*
X0384219Y0130593D01*
X0383993Y0130326D01*
X0383761Y0130063D01*
X0383522Y0129807D01*
X0383278Y0129556D01*
X0383027Y0129312D01*
X0382771Y0129073D01*
X0382508Y0128841D01*
X0382241Y0128615D01*
X0381968Y0128396D01*
X0381689Y0128183D01*
X0381406Y0127977D01*
X0381117Y0127779D01*
X0380824Y0127587D01*
X0380527Y0127402D01*
X0380225Y0127225D01*
X0379918Y0127055D01*
X0379608Y0126892D01*
X0379294Y0126737D01*
X0378976Y0126590D01*
X0378655Y0126451D01*
X0378330Y0126319D01*
X0378003Y0126195D01*
X0377672Y0126079D01*
X0377339Y0125971D01*
X0377003Y0125872D01*
X0376665Y0125780D01*
X0376325Y0125697D01*
X0375983Y0125622D01*
X0375639Y0125555D01*
X0375293Y0125497D01*
X0374947Y0125447D01*
X0374599Y0125405D01*
X0374250Y0125372D01*
X0373901Y0125348D01*
X0373551Y0125331D01*
X0373201Y0125324D01*
X0372850Y0125324D01*
X0372500Y0125334D01*
X0372500Y0125333D02*
X0302500Y0125333D01*
X0302500Y0125334D02*
X0302150Y0125324D01*
X0301799Y0125324D01*
X0301449Y0125331D01*
X0301099Y0125348D01*
X0300750Y0125372D01*
X0300401Y0125405D01*
X0300053Y0125447D01*
X0299707Y0125497D01*
X0299361Y0125555D01*
X0299017Y0125622D01*
X0298675Y0125697D01*
X0298335Y0125780D01*
X0297997Y0125872D01*
X0297661Y0125971D01*
X0297328Y0126079D01*
X0296997Y0126195D01*
X0296670Y0126319D01*
X0296345Y0126451D01*
X0296024Y0126590D01*
X0295706Y0126737D01*
X0295392Y0126892D01*
X0295082Y0127055D01*
X0294775Y0127225D01*
X0294473Y0127402D01*
X0294176Y0127587D01*
X0293883Y0127779D01*
X0293594Y0127977D01*
X0293311Y0128183D01*
X0293032Y0128396D01*
X0292759Y0128615D01*
X0292492Y0128841D01*
X0292229Y0129073D01*
X0291973Y0129312D01*
X0291722Y0129556D01*
X0291478Y0129807D01*
X0291239Y0130063D01*
X0291007Y0130326D01*
X0290781Y0130593D01*
X0290562Y0130866D01*
X0290349Y0131145D01*
X0290143Y0131428D01*
X0289945Y0131717D01*
X0289753Y0132010D01*
X0289568Y0132307D01*
X0289391Y0132609D01*
X0289221Y0132916D01*
X0289058Y0133226D01*
X0288903Y0133540D01*
X0288756Y0133858D01*
X0288617Y0134179D01*
X0288485Y0134504D01*
X0288361Y0134831D01*
X0288245Y0135162D01*
X0288137Y0135495D01*
X0288038Y0135831D01*
X0287946Y0136169D01*
X0287863Y0136509D01*
X0287788Y0136851D01*
X0287721Y0137195D01*
X0287663Y0137541D01*
X0287613Y0137887D01*
X0287571Y0138235D01*
X0287538Y0138584D01*
X0287514Y0138933D01*
X0287497Y0139283D01*
X0287490Y0139633D01*
X0287490Y0139984D01*
X0287500Y0140334D01*
X0285500Y0140334D02*
X0285510Y0139984D01*
X0285510Y0139633D01*
X0285503Y0139283D01*
X0285486Y0138933D01*
X0285462Y0138584D01*
X0285429Y0138235D01*
X0285387Y0137887D01*
X0285337Y0137541D01*
X0285279Y0137195D01*
X0285212Y0136851D01*
X0285137Y0136509D01*
X0285054Y0136169D01*
X0284962Y0135831D01*
X0284863Y0135495D01*
X0284755Y0135162D01*
X0284639Y0134831D01*
X0284515Y0134504D01*
X0284383Y0134179D01*
X0284244Y0133858D01*
X0284097Y0133540D01*
X0283942Y0133226D01*
X0283779Y0132916D01*
X0283609Y0132609D01*
X0283432Y0132307D01*
X0283247Y0132010D01*
X0283055Y0131717D01*
X0282857Y0131428D01*
X0282651Y0131145D01*
X0282438Y0130866D01*
X0282219Y0130593D01*
X0281993Y0130326D01*
X0281761Y0130063D01*
X0281522Y0129807D01*
X0281278Y0129556D01*
X0281027Y0129312D01*
X0280771Y0129073D01*
X0280508Y0128841D01*
X0280241Y0128615D01*
X0279968Y0128396D01*
X0279689Y0128183D01*
X0279406Y0127977D01*
X0279117Y0127779D01*
X0278824Y0127587D01*
X0278527Y0127402D01*
X0278225Y0127225D01*
X0277918Y0127055D01*
X0277608Y0126892D01*
X0277294Y0126737D01*
X0276976Y0126590D01*
X0276655Y0126451D01*
X0276330Y0126319D01*
X0276003Y0126195D01*
X0275672Y0126079D01*
X0275339Y0125971D01*
X0275003Y0125872D01*
X0274665Y0125780D01*
X0274325Y0125697D01*
X0273983Y0125622D01*
X0273639Y0125555D01*
X0273293Y0125497D01*
X0272947Y0125447D01*
X0272599Y0125405D01*
X0272250Y0125372D01*
X0271901Y0125348D01*
X0271551Y0125331D01*
X0271201Y0125324D01*
X0270850Y0125324D01*
X0270500Y0125334D01*
X0270500Y0125333D02*
X0200500Y0125333D01*
X0200500Y0125334D02*
X0200150Y0125324D01*
X0199799Y0125324D01*
X0199449Y0125331D01*
X0199099Y0125348D01*
X0198750Y0125372D01*
X0198401Y0125405D01*
X0198053Y0125447D01*
X0197707Y0125497D01*
X0197361Y0125555D01*
X0197017Y0125622D01*
X0196675Y0125697D01*
X0196335Y0125780D01*
X0195997Y0125872D01*
X0195661Y0125971D01*
X0195328Y0126079D01*
X0194997Y0126195D01*
X0194670Y0126319D01*
X0194345Y0126451D01*
X0194024Y0126590D01*
X0193706Y0126737D01*
X0193392Y0126892D01*
X0193082Y0127055D01*
X0192775Y0127225D01*
X0192473Y0127402D01*
X0192176Y0127587D01*
X0191883Y0127779D01*
X0191594Y0127977D01*
X0191311Y0128183D01*
X0191032Y0128396D01*
X0190759Y0128615D01*
X0190492Y0128841D01*
X0190229Y0129073D01*
X0189973Y0129312D01*
X0189722Y0129556D01*
X0189478Y0129807D01*
X0189239Y0130063D01*
X0189007Y0130326D01*
X0188781Y0130593D01*
X0188562Y0130866D01*
X0188349Y0131145D01*
X0188143Y0131428D01*
X0187945Y0131717D01*
X0187753Y0132010D01*
X0187568Y0132307D01*
X0187391Y0132609D01*
X0187221Y0132916D01*
X0187058Y0133226D01*
X0186903Y0133540D01*
X0186756Y0133858D01*
X0186617Y0134179D01*
X0186485Y0134504D01*
X0186361Y0134831D01*
X0186245Y0135162D01*
X0186137Y0135495D01*
X0186038Y0135831D01*
X0185946Y0136169D01*
X0185863Y0136509D01*
X0185788Y0136851D01*
X0185721Y0137195D01*
X0185663Y0137541D01*
X0185613Y0137887D01*
X0185571Y0138235D01*
X0185538Y0138584D01*
X0185514Y0138933D01*
X0185497Y0139283D01*
X0185490Y0139633D01*
X0185490Y0139984D01*
X0185500Y0140334D01*
X0200500Y0217333D02*
X0270500Y0217333D01*
X0270500Y0217334D02*
X0270850Y0217324D01*
X0271201Y0217324D01*
X0271551Y0217331D01*
X0271901Y0217348D01*
X0272250Y0217372D01*
X0272599Y0217405D01*
X0272947Y0217447D01*
X0273293Y0217497D01*
X0273639Y0217555D01*
X0273983Y0217622D01*
X0274325Y0217697D01*
X0274665Y0217780D01*
X0275003Y0217872D01*
X0275339Y0217971D01*
X0275672Y0218079D01*
X0276003Y0218195D01*
X0276330Y0218319D01*
X0276655Y0218451D01*
X0276976Y0218590D01*
X0277294Y0218737D01*
X0277608Y0218892D01*
X0277918Y0219055D01*
X0278225Y0219225D01*
X0278527Y0219402D01*
X0278824Y0219587D01*
X0279117Y0219779D01*
X0279406Y0219977D01*
X0279689Y0220183D01*
X0279968Y0220396D01*
X0280241Y0220615D01*
X0280508Y0220841D01*
X0280771Y0221073D01*
X0281027Y0221312D01*
X0281278Y0221556D01*
X0281522Y0221807D01*
X0281761Y0222063D01*
X0281993Y0222326D01*
X0282219Y0222593D01*
X0282438Y0222866D01*
X0282651Y0223145D01*
X0282857Y0223428D01*
X0283055Y0223717D01*
X0283247Y0224010D01*
X0283432Y0224307D01*
X0283609Y0224609D01*
X0283779Y0224916D01*
X0283942Y0225226D01*
X0284097Y0225540D01*
X0284244Y0225858D01*
X0284383Y0226179D01*
X0284515Y0226504D01*
X0284639Y0226831D01*
X0284755Y0227162D01*
X0284863Y0227495D01*
X0284962Y0227831D01*
X0285054Y0228169D01*
X0285137Y0228509D01*
X0285212Y0228851D01*
X0285279Y0229195D01*
X0285337Y0229541D01*
X0285387Y0229887D01*
X0285429Y0230235D01*
X0285462Y0230584D01*
X0285486Y0230933D01*
X0285503Y0231283D01*
X0285510Y0231633D01*
X0285510Y0231984D01*
X0285500Y0232334D01*
X0285500Y0232333D02*
X0285500Y0307333D01*
X0185500Y0307333D01*
X0185500Y0232333D01*
X0183500Y0232333D02*
X0183500Y0307333D01*
X0083500Y0307333D01*
X0083500Y0232333D01*
X0083500Y0232334D02*
X0083490Y0231984D01*
X0083490Y0231633D01*
X0083497Y0231283D01*
X0083514Y0230933D01*
X0083538Y0230584D01*
X0083571Y0230235D01*
X0083613Y0229887D01*
X0083663Y0229541D01*
X0083721Y0229195D01*
X0083788Y0228851D01*
X0083863Y0228509D01*
X0083946Y0228169D01*
X0084038Y0227831D01*
X0084137Y0227495D01*
X0084245Y0227162D01*
X0084361Y0226831D01*
X0084485Y0226504D01*
X0084617Y0226179D01*
X0084756Y0225858D01*
X0084903Y0225540D01*
X0085058Y0225226D01*
X0085221Y0224916D01*
X0085391Y0224609D01*
X0085568Y0224307D01*
X0085753Y0224010D01*
X0085945Y0223717D01*
X0086143Y0223428D01*
X0086349Y0223145D01*
X0086562Y0222866D01*
X0086781Y0222593D01*
X0087007Y0222326D01*
X0087239Y0222063D01*
X0087478Y0221807D01*
X0087722Y0221556D01*
X0087973Y0221312D01*
X0088229Y0221073D01*
X0088492Y0220841D01*
X0088759Y0220615D01*
X0089032Y0220396D01*
X0089311Y0220183D01*
X0089594Y0219977D01*
X0089883Y0219779D01*
X0090176Y0219587D01*
X0090473Y0219402D01*
X0090775Y0219225D01*
X0091082Y0219055D01*
X0091392Y0218892D01*
X0091706Y0218737D01*
X0092024Y0218590D01*
X0092345Y0218451D01*
X0092670Y0218319D01*
X0092997Y0218195D01*
X0093328Y0218079D01*
X0093661Y0217971D01*
X0093997Y0217872D01*
X0094335Y0217780D01*
X0094675Y0217697D01*
X0095017Y0217622D01*
X0095361Y0217555D01*
X0095707Y0217497D01*
X0096053Y0217447D01*
X0096401Y0217405D01*
X0096750Y0217372D01*
X0097099Y0217348D01*
X0097449Y0217331D01*
X0097799Y0217324D01*
X0098150Y0217324D01*
X0098500Y0217334D01*
X0098500Y0217333D02*
X0168500Y0217333D01*
X0168500Y0217334D02*
X0168850Y0217324D01*
X0169201Y0217324D01*
X0169551Y0217331D01*
X0169901Y0217348D01*
X0170250Y0217372D01*
X0170599Y0217405D01*
X0170947Y0217447D01*
X0171293Y0217497D01*
X0171639Y0217555D01*
X0171983Y0217622D01*
X0172325Y0217697D01*
X0172665Y0217780D01*
X0173003Y0217872D01*
X0173339Y0217971D01*
X0173672Y0218079D01*
X0174003Y0218195D01*
X0174330Y0218319D01*
X0174655Y0218451D01*
X0174976Y0218590D01*
X0175294Y0218737D01*
X0175608Y0218892D01*
X0175918Y0219055D01*
X0176225Y0219225D01*
X0176527Y0219402D01*
X0176824Y0219587D01*
X0177117Y0219779D01*
X0177406Y0219977D01*
X0177689Y0220183D01*
X0177968Y0220396D01*
X0178241Y0220615D01*
X0178508Y0220841D01*
X0178771Y0221073D01*
X0179027Y0221312D01*
X0179278Y0221556D01*
X0179522Y0221807D01*
X0179761Y0222063D01*
X0179993Y0222326D01*
X0180219Y0222593D01*
X0180438Y0222866D01*
X0180651Y0223145D01*
X0180857Y0223428D01*
X0181055Y0223717D01*
X0181247Y0224010D01*
X0181432Y0224307D01*
X0181609Y0224609D01*
X0181779Y0224916D01*
X0181942Y0225226D01*
X0182097Y0225540D01*
X0182244Y0225858D01*
X0182383Y0226179D01*
X0182515Y0226504D01*
X0182639Y0226831D01*
X0182755Y0227162D01*
X0182863Y0227495D01*
X0182962Y0227831D01*
X0183054Y0228169D01*
X0183137Y0228509D01*
X0183212Y0228851D01*
X0183279Y0229195D01*
X0183337Y0229541D01*
X0183387Y0229887D01*
X0183429Y0230235D01*
X0183462Y0230584D01*
X0183486Y0230933D01*
X0183503Y0231283D01*
X0183510Y0231633D01*
X0183510Y0231984D01*
X0183500Y0232334D01*
X0185500Y0232334D02*
X0185490Y0231984D01*
X0185490Y0231633D01*
X0185497Y0231283D01*
X0185514Y0230933D01*
X0185538Y0230584D01*
X0185571Y0230235D01*
X0185613Y0229887D01*
X0185663Y0229541D01*
X0185721Y0229195D01*
X0185788Y0228851D01*
X0185863Y0228509D01*
X0185946Y0228169D01*
X0186038Y0227831D01*
X0186137Y0227495D01*
X0186245Y0227162D01*
X0186361Y0226831D01*
X0186485Y0226504D01*
X0186617Y0226179D01*
X0186756Y0225858D01*
X0186903Y0225540D01*
X0187058Y0225226D01*
X0187221Y0224916D01*
X0187391Y0224609D01*
X0187568Y0224307D01*
X0187753Y0224010D01*
X0187945Y0223717D01*
X0188143Y0223428D01*
X0188349Y0223145D01*
X0188562Y0222866D01*
X0188781Y0222593D01*
X0189007Y0222326D01*
X0189239Y0222063D01*
X0189478Y0221807D01*
X0189722Y0221556D01*
X0189973Y0221312D01*
X0190229Y0221073D01*
X0190492Y0220841D01*
X0190759Y0220615D01*
X0191032Y0220396D01*
X0191311Y0220183D01*
X0191594Y0219977D01*
X0191883Y0219779D01*
X0192176Y0219587D01*
X0192473Y0219402D01*
X0192775Y0219225D01*
X0193082Y0219055D01*
X0193392Y0218892D01*
X0193706Y0218737D01*
X0194024Y0218590D01*
X0194345Y0218451D01*
X0194670Y0218319D01*
X0194997Y0218195D01*
X0195328Y0218079D01*
X0195661Y0217971D01*
X0195997Y0217872D01*
X0196335Y0217780D01*
X0196675Y0217697D01*
X0197017Y0217622D01*
X0197361Y0217555D01*
X0197707Y0217497D01*
X0198053Y0217447D01*
X0198401Y0217405D01*
X0198750Y0217372D01*
X0199099Y0217348D01*
X0199449Y0217331D01*
X0199799Y0217324D01*
X0200150Y0217324D01*
X0200500Y0217334D01*
X0287500Y0232333D02*
X0287500Y0307333D01*
X0387500Y0307333D01*
X0387500Y0232333D01*
X0387500Y0232334D02*
X0387510Y0231984D01*
X0387510Y0231633D01*
X0387503Y0231283D01*
X0387486Y0230933D01*
X0387462Y0230584D01*
X0387429Y0230235D01*
X0387387Y0229887D01*
X0387337Y0229541D01*
X0387279Y0229195D01*
X0387212Y0228851D01*
X0387137Y0228509D01*
X0387054Y0228169D01*
X0386962Y0227831D01*
X0386863Y0227495D01*
X0386755Y0227162D01*
X0386639Y0226831D01*
X0386515Y0226504D01*
X0386383Y0226179D01*
X0386244Y0225858D01*
X0386097Y0225540D01*
X0385942Y0225226D01*
X0385779Y0224916D01*
X0385609Y0224609D01*
X0385432Y0224307D01*
X0385247Y0224010D01*
X0385055Y0223717D01*
X0384857Y0223428D01*
X0384651Y0223145D01*
X0384438Y0222866D01*
X0384219Y0222593D01*
X0383993Y0222326D01*
X0383761Y0222063D01*
X0383522Y0221807D01*
X0383278Y0221556D01*
X0383027Y0221312D01*
X0382771Y0221073D01*
X0382508Y0220841D01*
X0382241Y0220615D01*
X0381968Y0220396D01*
X0381689Y0220183D01*
X0381406Y0219977D01*
X0381117Y0219779D01*
X0380824Y0219587D01*
X0380527Y0219402D01*
X0380225Y0219225D01*
X0379918Y0219055D01*
X0379608Y0218892D01*
X0379294Y0218737D01*
X0378976Y0218590D01*
X0378655Y0218451D01*
X0378330Y0218319D01*
X0378003Y0218195D01*
X0377672Y0218079D01*
X0377339Y0217971D01*
X0377003Y0217872D01*
X0376665Y0217780D01*
X0376325Y0217697D01*
X0375983Y0217622D01*
X0375639Y0217555D01*
X0375293Y0217497D01*
X0374947Y0217447D01*
X0374599Y0217405D01*
X0374250Y0217372D01*
X0373901Y0217348D01*
X0373551Y0217331D01*
X0373201Y0217324D01*
X0372850Y0217324D01*
X0372500Y0217334D01*
X0372500Y0217333D02*
X0302500Y0217333D01*
X0302500Y0217334D02*
X0302150Y0217324D01*
X0301799Y0217324D01*
X0301449Y0217331D01*
X0301099Y0217348D01*
X0300750Y0217372D01*
X0300401Y0217405D01*
X0300053Y0217447D01*
X0299707Y0217497D01*
X0299361Y0217555D01*
X0299017Y0217622D01*
X0298675Y0217697D01*
X0298335Y0217780D01*
X0297997Y0217872D01*
X0297661Y0217971D01*
X0297328Y0218079D01*
X0296997Y0218195D01*
X0296670Y0218319D01*
X0296345Y0218451D01*
X0296024Y0218590D01*
X0295706Y0218737D01*
X0295392Y0218892D01*
X0295082Y0219055D01*
X0294775Y0219225D01*
X0294473Y0219402D01*
X0294176Y0219587D01*
X0293883Y0219779D01*
X0293594Y0219977D01*
X0293311Y0220183D01*
X0293032Y0220396D01*
X0292759Y0220615D01*
X0292492Y0220841D01*
X0292229Y0221073D01*
X0291973Y0221312D01*
X0291722Y0221556D01*
X0291478Y0221807D01*
X0291239Y0222063D01*
X0291007Y0222326D01*
X0290781Y0222593D01*
X0290562Y0222866D01*
X0290349Y0223145D01*
X0290143Y0223428D01*
X0289945Y0223717D01*
X0289753Y0224010D01*
X0289568Y0224307D01*
X0289391Y0224609D01*
X0289221Y0224916D01*
X0289058Y0225226D01*
X0288903Y0225540D01*
X0288756Y0225858D01*
X0288617Y0226179D01*
X0288485Y0226504D01*
X0288361Y0226831D01*
X0288245Y0227162D01*
X0288137Y0227495D01*
X0288038Y0227831D01*
X0287946Y0228169D01*
X0287863Y0228509D01*
X0287788Y0228851D01*
X0287721Y0229195D01*
X0287663Y0229541D01*
X0287613Y0229887D01*
X0287571Y0230235D01*
X0287538Y0230584D01*
X0287514Y0230933D01*
X0287497Y0231283D01*
X0287490Y0231633D01*
X0287490Y0231984D01*
X0287500Y0232334D01*
X0302500Y0309333D02*
X0372500Y0309333D01*
X0372500Y0309334D02*
X0372850Y0309324D01*
X0373201Y0309324D01*
X0373551Y0309331D01*
X0373901Y0309348D01*
X0374250Y0309372D01*
X0374599Y0309405D01*
X0374947Y0309447D01*
X0375293Y0309497D01*
X0375639Y0309555D01*
X0375983Y0309622D01*
X0376325Y0309697D01*
X0376665Y0309780D01*
X0377003Y0309872D01*
X0377339Y0309971D01*
X0377672Y0310079D01*
X0378003Y0310195D01*
X0378330Y0310319D01*
X0378655Y0310451D01*
X0378976Y0310590D01*
X0379294Y0310737D01*
X0379608Y0310892D01*
X0379918Y0311055D01*
X0380225Y0311225D01*
X0380527Y0311402D01*
X0380824Y0311587D01*
X0381117Y0311779D01*
X0381406Y0311977D01*
X0381689Y0312183D01*
X0381968Y0312396D01*
X0382241Y0312615D01*
X0382508Y0312841D01*
X0382771Y0313073D01*
X0383027Y0313312D01*
X0383278Y0313556D01*
X0383522Y0313807D01*
X0383761Y0314063D01*
X0383993Y0314326D01*
X0384219Y0314593D01*
X0384438Y0314866D01*
X0384651Y0315145D01*
X0384857Y0315428D01*
X0385055Y0315717D01*
X0385247Y0316010D01*
X0385432Y0316307D01*
X0385609Y0316609D01*
X0385779Y0316916D01*
X0385942Y0317226D01*
X0386097Y0317540D01*
X0386244Y0317858D01*
X0386383Y0318179D01*
X0386515Y0318504D01*
X0386639Y0318831D01*
X0386755Y0319162D01*
X0386863Y0319495D01*
X0386962Y0319831D01*
X0387054Y0320169D01*
X0387137Y0320509D01*
X0387212Y0320851D01*
X0387279Y0321195D01*
X0387337Y0321541D01*
X0387387Y0321887D01*
X0387429Y0322235D01*
X0387462Y0322584D01*
X0387486Y0322933D01*
X0387503Y0323283D01*
X0387510Y0323633D01*
X0387510Y0323984D01*
X0387500Y0324334D01*
X0387500Y0324333D02*
X0387500Y0399333D01*
X0287500Y0399333D01*
X0287500Y0324333D01*
X0285500Y0324333D02*
X0285500Y0399333D01*
X0185500Y0399333D01*
X0185500Y0324333D01*
X0183500Y0324333D02*
X0183500Y0399333D01*
X0083500Y0399333D01*
X0083500Y0324333D01*
X0083500Y0324334D02*
X0083490Y0323984D01*
X0083490Y0323633D01*
X0083497Y0323283D01*
X0083514Y0322933D01*
X0083538Y0322584D01*
X0083571Y0322235D01*
X0083613Y0321887D01*
X0083663Y0321541D01*
X0083721Y0321195D01*
X0083788Y0320851D01*
X0083863Y0320509D01*
X0083946Y0320169D01*
X0084038Y0319831D01*
X0084137Y0319495D01*
X0084245Y0319162D01*
X0084361Y0318831D01*
X0084485Y0318504D01*
X0084617Y0318179D01*
X0084756Y0317858D01*
X0084903Y0317540D01*
X0085058Y0317226D01*
X0085221Y0316916D01*
X0085391Y0316609D01*
X0085568Y0316307D01*
X0085753Y0316010D01*
X0085945Y0315717D01*
X0086143Y0315428D01*
X0086349Y0315145D01*
X0086562Y0314866D01*
X0086781Y0314593D01*
X0087007Y0314326D01*
X0087239Y0314063D01*
X0087478Y0313807D01*
X0087722Y0313556D01*
X0087973Y0313312D01*
X0088229Y0313073D01*
X0088492Y0312841D01*
X0088759Y0312615D01*
X0089032Y0312396D01*
X0089311Y0312183D01*
X0089594Y0311977D01*
X0089883Y0311779D01*
X0090176Y0311587D01*
X0090473Y0311402D01*
X0090775Y0311225D01*
X0091082Y0311055D01*
X0091392Y0310892D01*
X0091706Y0310737D01*
X0092024Y0310590D01*
X0092345Y0310451D01*
X0092670Y0310319D01*
X0092997Y0310195D01*
X0093328Y0310079D01*
X0093661Y0309971D01*
X0093997Y0309872D01*
X0094335Y0309780D01*
X0094675Y0309697D01*
X0095017Y0309622D01*
X0095361Y0309555D01*
X0095707Y0309497D01*
X0096053Y0309447D01*
X0096401Y0309405D01*
X0096750Y0309372D01*
X0097099Y0309348D01*
X0097449Y0309331D01*
X0097799Y0309324D01*
X0098150Y0309324D01*
X0098500Y0309334D01*
X0098500Y0309333D02*
X0168500Y0309333D01*
X0168500Y0309334D02*
X0168850Y0309324D01*
X0169201Y0309324D01*
X0169551Y0309331D01*
X0169901Y0309348D01*
X0170250Y0309372D01*
X0170599Y0309405D01*
X0170947Y0309447D01*
X0171293Y0309497D01*
X0171639Y0309555D01*
X0171983Y0309622D01*
X0172325Y0309697D01*
X0172665Y0309780D01*
X0173003Y0309872D01*
X0173339Y0309971D01*
X0173672Y0310079D01*
X0174003Y0310195D01*
X0174330Y0310319D01*
X0174655Y0310451D01*
X0174976Y0310590D01*
X0175294Y0310737D01*
X0175608Y0310892D01*
X0175918Y0311055D01*
X0176225Y0311225D01*
X0176527Y0311402D01*
X0176824Y0311587D01*
X0177117Y0311779D01*
X0177406Y0311977D01*
X0177689Y0312183D01*
X0177968Y0312396D01*
X0178241Y0312615D01*
X0178508Y0312841D01*
X0178771Y0313073D01*
X0179027Y0313312D01*
X0179278Y0313556D01*
X0179522Y0313807D01*
X0179761Y0314063D01*
X0179993Y0314326D01*
X0180219Y0314593D01*
X0180438Y0314866D01*
X0180651Y0315145D01*
X0180857Y0315428D01*
X0181055Y0315717D01*
X0181247Y0316010D01*
X0181432Y0316307D01*
X0181609Y0316609D01*
X0181779Y0316916D01*
X0181942Y0317226D01*
X0182097Y0317540D01*
X0182244Y0317858D01*
X0182383Y0318179D01*
X0182515Y0318504D01*
X0182639Y0318831D01*
X0182755Y0319162D01*
X0182863Y0319495D01*
X0182962Y0319831D01*
X0183054Y0320169D01*
X0183137Y0320509D01*
X0183212Y0320851D01*
X0183279Y0321195D01*
X0183337Y0321541D01*
X0183387Y0321887D01*
X0183429Y0322235D01*
X0183462Y0322584D01*
X0183486Y0322933D01*
X0183503Y0323283D01*
X0183510Y0323633D01*
X0183510Y0323984D01*
X0183500Y0324334D01*
X0185500Y0324334D02*
X0185490Y0323984D01*
X0185490Y0323633D01*
X0185497Y0323283D01*
X0185514Y0322933D01*
X0185538Y0322584D01*
X0185571Y0322235D01*
X0185613Y0321887D01*
X0185663Y0321541D01*
X0185721Y0321195D01*
X0185788Y0320851D01*
X0185863Y0320509D01*
X0185946Y0320169D01*
X0186038Y0319831D01*
X0186137Y0319495D01*
X0186245Y0319162D01*
X0186361Y0318831D01*
X0186485Y0318504D01*
X0186617Y0318179D01*
X0186756Y0317858D01*
X0186903Y0317540D01*
X0187058Y0317226D01*
X0187221Y0316916D01*
X0187391Y0316609D01*
X0187568Y0316307D01*
X0187753Y0316010D01*
X0187945Y0315717D01*
X0188143Y0315428D01*
X0188349Y0315145D01*
X0188562Y0314866D01*
X0188781Y0314593D01*
X0189007Y0314326D01*
X0189239Y0314063D01*
X0189478Y0313807D01*
X0189722Y0313556D01*
X0189973Y0313312D01*
X0190229Y0313073D01*
X0190492Y0312841D01*
X0190759Y0312615D01*
X0191032Y0312396D01*
X0191311Y0312183D01*
X0191594Y0311977D01*
X0191883Y0311779D01*
X0192176Y0311587D01*
X0192473Y0311402D01*
X0192775Y0311225D01*
X0193082Y0311055D01*
X0193392Y0310892D01*
X0193706Y0310737D01*
X0194024Y0310590D01*
X0194345Y0310451D01*
X0194670Y0310319D01*
X0194997Y0310195D01*
X0195328Y0310079D01*
X0195661Y0309971D01*
X0195997Y0309872D01*
X0196335Y0309780D01*
X0196675Y0309697D01*
X0197017Y0309622D01*
X0197361Y0309555D01*
X0197707Y0309497D01*
X0198053Y0309447D01*
X0198401Y0309405D01*
X0198750Y0309372D01*
X0199099Y0309348D01*
X0199449Y0309331D01*
X0199799Y0309324D01*
X0200150Y0309324D01*
X0200500Y0309334D01*
X0200500Y0309333D02*
X0270500Y0309333D01*
X0270500Y0309334D02*
X0270850Y0309324D01*
X0271201Y0309324D01*
X0271551Y0309331D01*
X0271901Y0309348D01*
X0272250Y0309372D01*
X0272599Y0309405D01*
X0272947Y0309447D01*
X0273293Y0309497D01*
X0273639Y0309555D01*
X0273983Y0309622D01*
X0274325Y0309697D01*
X0274665Y0309780D01*
X0275003Y0309872D01*
X0275339Y0309971D01*
X0275672Y0310079D01*
X0276003Y0310195D01*
X0276330Y0310319D01*
X0276655Y0310451D01*
X0276976Y0310590D01*
X0277294Y0310737D01*
X0277608Y0310892D01*
X0277918Y0311055D01*
X0278225Y0311225D01*
X0278527Y0311402D01*
X0278824Y0311587D01*
X0279117Y0311779D01*
X0279406Y0311977D01*
X0279689Y0312183D01*
X0279968Y0312396D01*
X0280241Y0312615D01*
X0280508Y0312841D01*
X0280771Y0313073D01*
X0281027Y0313312D01*
X0281278Y0313556D01*
X0281522Y0313807D01*
X0281761Y0314063D01*
X0281993Y0314326D01*
X0282219Y0314593D01*
X0282438Y0314866D01*
X0282651Y0315145D01*
X0282857Y0315428D01*
X0283055Y0315717D01*
X0283247Y0316010D01*
X0283432Y0316307D01*
X0283609Y0316609D01*
X0283779Y0316916D01*
X0283942Y0317226D01*
X0284097Y0317540D01*
X0284244Y0317858D01*
X0284383Y0318179D01*
X0284515Y0318504D01*
X0284639Y0318831D01*
X0284755Y0319162D01*
X0284863Y0319495D01*
X0284962Y0319831D01*
X0285054Y0320169D01*
X0285137Y0320509D01*
X0285212Y0320851D01*
X0285279Y0321195D01*
X0285337Y0321541D01*
X0285387Y0321887D01*
X0285429Y0322235D01*
X0285462Y0322584D01*
X0285486Y0322933D01*
X0285503Y0323283D01*
X0285510Y0323633D01*
X0285510Y0323984D01*
X0285500Y0324334D01*
X0287500Y0324334D02*
X0287490Y0323984D01*
X0287490Y0323633D01*
X0287497Y0323283D01*
X0287514Y0322933D01*
X0287538Y0322584D01*
X0287571Y0322235D01*
X0287613Y0321887D01*
X0287663Y0321541D01*
X0287721Y0321195D01*
X0287788Y0320851D01*
X0287863Y0320509D01*
X0287946Y0320169D01*
X0288038Y0319831D01*
X0288137Y0319495D01*
X0288245Y0319162D01*
X0288361Y0318831D01*
X0288485Y0318504D01*
X0288617Y0318179D01*
X0288756Y0317858D01*
X0288903Y0317540D01*
X0289058Y0317226D01*
X0289221Y0316916D01*
X0289391Y0316609D01*
X0289568Y0316307D01*
X0289753Y0316010D01*
X0289945Y0315717D01*
X0290143Y0315428D01*
X0290349Y0315145D01*
X0290562Y0314866D01*
X0290781Y0314593D01*
X0291007Y0314326D01*
X0291239Y0314063D01*
X0291478Y0313807D01*
X0291722Y0313556D01*
X0291973Y0313312D01*
X0292229Y0313073D01*
X0292492Y0312841D01*
X0292759Y0312615D01*
X0293032Y0312396D01*
X0293311Y0312183D01*
X0293594Y0311977D01*
X0293883Y0311779D01*
X0294176Y0311587D01*
X0294473Y0311402D01*
X0294775Y0311225D01*
X0295082Y0311055D01*
X0295392Y0310892D01*
X0295706Y0310737D01*
X0296024Y0310590D01*
X0296345Y0310451D01*
X0296670Y0310319D01*
X0296997Y0310195D01*
X0297328Y0310079D01*
X0297661Y0309971D01*
X0297997Y0309872D01*
X0298335Y0309780D01*
X0298675Y0309697D01*
X0299017Y0309622D01*
X0299361Y0309555D01*
X0299707Y0309497D01*
X0300053Y0309447D01*
X0300401Y0309405D01*
X0300750Y0309372D01*
X0301099Y0309348D01*
X0301449Y0309331D01*
X0301799Y0309324D01*
X0302150Y0309324D01*
X0302500Y0309334D01*
D11*
X0184500Y0438333D02*
X0184500Y0009333D01*
X0286500Y0012333D02*
X0286500Y0441333D01*
X0446500Y0308333D02*
X0017500Y0308333D01*
X0021500Y0216333D02*
X0450500Y0216333D01*
X0430500Y0124333D02*
X0001500Y0124333D01*
D12*
X0164050Y0007820D02*
X0166018Y0003883D01*
X0167987Y0007820D01*
X0170495Y0006836D02*
X0171480Y0007820D01*
X0174432Y0007820D01*
X0173448Y0005852D02*
X0171480Y0005852D01*
X0170495Y0006836D01*
X0170495Y0003883D02*
X0173448Y0003883D01*
X0174432Y0004867D01*
X0173448Y0005852D01*
X0176941Y0006836D02*
X0176941Y0004867D01*
X0177925Y0003883D01*
X0180878Y0003883D01*
X0183386Y0004867D02*
X0184371Y0003883D01*
X0186339Y0003883D01*
X0187323Y0004867D01*
X0187323Y0006836D01*
X0186339Y0007820D01*
X0184371Y0007820D01*
X0183386Y0006836D01*
X0183386Y0004867D01*
X0180878Y0007820D02*
X0177925Y0007820D01*
X0176941Y0006836D01*
X0189832Y0007820D02*
X0189832Y0003883D01*
X0189832Y0005852D02*
X0191800Y0007820D01*
X0192785Y0007820D01*
X0195203Y0006836D02*
X0196187Y0007820D01*
X0198156Y0007820D01*
X0199140Y0006836D01*
X0199140Y0005852D01*
X0195203Y0005852D01*
X0195203Y0006836D02*
X0195203Y0004867D01*
X0196187Y0003883D01*
X0198156Y0003883D01*
X0279050Y0007820D02*
X0281018Y0003883D01*
X0282987Y0007820D01*
X0285495Y0006836D02*
X0286480Y0007820D01*
X0289432Y0007820D01*
X0288448Y0005852D02*
X0289432Y0004867D01*
X0288448Y0003883D01*
X0285495Y0003883D01*
X0286480Y0005852D02*
X0285495Y0006836D01*
X0286480Y0005852D02*
X0288448Y0005852D01*
X0291941Y0006836D02*
X0291941Y0004867D01*
X0292925Y0003883D01*
X0295878Y0003883D01*
X0298386Y0004867D02*
X0299371Y0003883D01*
X0301339Y0003883D01*
X0302323Y0004867D01*
X0302323Y0006836D01*
X0301339Y0007820D01*
X0299371Y0007820D01*
X0298386Y0006836D01*
X0298386Y0004867D01*
X0295878Y0007820D02*
X0292925Y0007820D01*
X0291941Y0006836D01*
X0304832Y0007820D02*
X0304832Y0003883D01*
X0304832Y0005852D02*
X0306800Y0007820D01*
X0307785Y0007820D01*
X0310203Y0006836D02*
X0311187Y0007820D01*
X0313156Y0007820D01*
X0314140Y0006836D01*
X0314140Y0005852D01*
X0310203Y0005852D01*
X0310203Y0006836D02*
X0310203Y0004867D01*
X0311187Y0003883D01*
X0313156Y0003883D01*
X0431018Y0128883D02*
X0432987Y0132820D01*
X0435495Y0131836D02*
X0436480Y0132820D01*
X0439432Y0132820D01*
X0438448Y0130852D02*
X0436480Y0130852D01*
X0435495Y0131836D01*
X0435495Y0128883D02*
X0438448Y0128883D01*
X0439432Y0129867D01*
X0438448Y0130852D01*
X0441941Y0131836D02*
X0441941Y0129867D01*
X0442925Y0128883D01*
X0445878Y0128883D01*
X0448386Y0129867D02*
X0449371Y0128883D01*
X0451339Y0128883D01*
X0452323Y0129867D01*
X0452323Y0131836D01*
X0451339Y0132820D01*
X0449371Y0132820D01*
X0448386Y0131836D01*
X0448386Y0129867D01*
X0445878Y0132820D02*
X0442925Y0132820D01*
X0441941Y0131836D01*
X0454832Y0132820D02*
X0454832Y0128883D01*
X0454832Y0130852D02*
X0456800Y0132820D01*
X0457785Y0132820D01*
X0460203Y0131836D02*
X0461187Y0132820D01*
X0463156Y0132820D01*
X0464140Y0131836D01*
X0464140Y0130852D01*
X0460203Y0130852D01*
X0460203Y0131836D02*
X0460203Y0129867D01*
X0461187Y0128883D01*
X0463156Y0128883D01*
X0431018Y0128883D02*
X0429050Y0132820D01*
X0436018Y0213883D02*
X0437987Y0217820D01*
X0440495Y0216836D02*
X0441480Y0217820D01*
X0444432Y0217820D01*
X0443448Y0215852D02*
X0441480Y0215852D01*
X0440495Y0216836D01*
X0440495Y0213883D02*
X0443448Y0213883D01*
X0444432Y0214867D01*
X0443448Y0215852D01*
X0446941Y0216836D02*
X0447925Y0217820D01*
X0450878Y0217820D01*
X0453386Y0216836D02*
X0454371Y0217820D01*
X0456339Y0217820D01*
X0457323Y0216836D01*
X0457323Y0214867D01*
X0456339Y0213883D01*
X0454371Y0213883D01*
X0453386Y0214867D01*
X0453386Y0216836D01*
X0450878Y0213883D02*
X0447925Y0213883D01*
X0446941Y0214867D01*
X0446941Y0216836D01*
X0459832Y0217820D02*
X0459832Y0213883D01*
X0459832Y0215852D02*
X0461800Y0217820D01*
X0462785Y0217820D01*
X0465203Y0216836D02*
X0466187Y0217820D01*
X0468156Y0217820D01*
X0469140Y0216836D01*
X0469140Y0215852D01*
X0465203Y0215852D01*
X0465203Y0216836D02*
X0465203Y0214867D01*
X0466187Y0213883D01*
X0468156Y0213883D01*
X0436018Y0213883D02*
X0434050Y0217820D01*
X0436018Y0308883D02*
X0437987Y0312820D01*
X0440495Y0311836D02*
X0441480Y0312820D01*
X0444432Y0312820D01*
X0443448Y0310852D02*
X0441480Y0310852D01*
X0440495Y0311836D01*
X0440495Y0308883D02*
X0443448Y0308883D01*
X0444432Y0309867D01*
X0443448Y0310852D01*
X0446941Y0311836D02*
X0446941Y0309867D01*
X0447925Y0308883D01*
X0450878Y0308883D01*
X0453386Y0309867D02*
X0454371Y0308883D01*
X0456339Y0308883D01*
X0457323Y0309867D01*
X0457323Y0311836D01*
X0456339Y0312820D01*
X0454371Y0312820D01*
X0453386Y0311836D01*
X0453386Y0309867D01*
X0450878Y0312820D02*
X0447925Y0312820D01*
X0446941Y0311836D01*
X0459832Y0312820D02*
X0459832Y0308883D01*
X0459832Y0310852D02*
X0461800Y0312820D01*
X0462785Y0312820D01*
X0465203Y0311836D02*
X0465203Y0309867D01*
X0466187Y0308883D01*
X0468156Y0308883D01*
X0469140Y0310852D02*
X0465203Y0310852D01*
X0465203Y0311836D02*
X0466187Y0312820D01*
X0468156Y0312820D01*
X0469140Y0311836D01*
X0469140Y0310852D01*
X0436018Y0308883D02*
X0434050Y0312820D01*
D13*
X0289514Y0313483D02*
X0288947Y0313483D01*
X0289231Y0313483D02*
X0289231Y0315185D01*
X0288947Y0315185D01*
X0288003Y0315185D02*
X0288003Y0313483D01*
X0288286Y0313483D02*
X0287719Y0313483D01*
X0287059Y0313483D02*
X0286492Y0313483D01*
X0286775Y0313483D02*
X0286775Y0314618D01*
X0286492Y0314618D01*
X0286775Y0315185D02*
X0286775Y0315468D01*
X0287719Y0315185D02*
X0288003Y0315185D01*
X0285784Y0314334D02*
X0285501Y0314618D01*
X0285217Y0314334D01*
X0285217Y0313483D01*
X0284650Y0313483D02*
X0284650Y0314618D01*
X0284934Y0314618D01*
X0285217Y0314334D01*
X0285784Y0314334D02*
X0285784Y0313483D01*
X0285501Y0311618D02*
X0284934Y0311618D01*
X0284650Y0311334D01*
X0284650Y0310767D01*
X0284934Y0310483D01*
X0285501Y0310483D01*
X0285784Y0310767D01*
X0285784Y0311334D01*
X0285501Y0311618D01*
X0286492Y0311618D02*
X0286492Y0310767D01*
X0286775Y0310483D01*
X0287626Y0310483D01*
X0287626Y0311618D01*
X0288333Y0311618D02*
X0288900Y0311618D01*
X0288617Y0311901D02*
X0288617Y0310767D01*
X0288900Y0310483D01*
X0285775Y0223468D02*
X0285775Y0223185D01*
X0285775Y0222618D02*
X0285775Y0221483D01*
X0285492Y0221483D02*
X0286059Y0221483D01*
X0286719Y0221483D02*
X0287286Y0221483D01*
X0287003Y0221483D02*
X0287003Y0223185D01*
X0286719Y0223185D01*
X0285775Y0222618D02*
X0285492Y0222618D01*
X0284784Y0222334D02*
X0284784Y0221483D01*
X0284217Y0221483D02*
X0284217Y0222334D01*
X0284501Y0222618D01*
X0284784Y0222334D01*
X0284217Y0222334D02*
X0283934Y0222618D01*
X0283650Y0222618D01*
X0283650Y0221483D01*
X0283934Y0219618D02*
X0283650Y0219334D01*
X0283650Y0218767D01*
X0283934Y0218483D01*
X0284501Y0218483D01*
X0284784Y0218767D01*
X0284784Y0219334D01*
X0284501Y0219618D01*
X0283934Y0219618D01*
X0285492Y0219618D02*
X0285492Y0218767D01*
X0285775Y0218483D01*
X0286626Y0218483D01*
X0286626Y0219618D01*
X0287333Y0219618D02*
X0287900Y0219618D01*
X0287617Y0219901D02*
X0287617Y0218767D01*
X0287900Y0218483D01*
X0287947Y0221483D02*
X0288514Y0221483D01*
X0288231Y0221483D02*
X0288231Y0223185D01*
X0287947Y0223185D01*
X0285775Y0131468D02*
X0285775Y0131185D01*
X0285775Y0130618D02*
X0285775Y0129483D01*
X0285492Y0129483D02*
X0286059Y0129483D01*
X0286719Y0129483D02*
X0287286Y0129483D01*
X0287003Y0129483D02*
X0287003Y0131185D01*
X0286719Y0131185D01*
X0285775Y0130618D02*
X0285492Y0130618D01*
X0284784Y0130334D02*
X0284784Y0129483D01*
X0284217Y0129483D02*
X0284217Y0130334D01*
X0284501Y0130618D01*
X0284784Y0130334D01*
X0284217Y0130334D02*
X0283934Y0130618D01*
X0283650Y0130618D01*
X0283650Y0129483D01*
X0283934Y0127618D02*
X0283650Y0127334D01*
X0283650Y0126767D01*
X0283934Y0126483D01*
X0284501Y0126483D01*
X0284784Y0126767D01*
X0284784Y0127334D01*
X0284501Y0127618D01*
X0283934Y0127618D01*
X0285492Y0127618D02*
X0285492Y0126767D01*
X0285775Y0126483D01*
X0286626Y0126483D01*
X0286626Y0127618D01*
X0287333Y0127618D02*
X0287900Y0127618D01*
X0287617Y0127901D02*
X0287617Y0126767D01*
X0287900Y0126483D01*
X0287947Y0129483D02*
X0288514Y0129483D01*
X0288231Y0129483D02*
X0288231Y0131185D01*
X0287947Y0131185D01*
X0187514Y0129483D02*
X0186947Y0129483D01*
X0187231Y0129483D02*
X0187231Y0131185D01*
X0186947Y0131185D01*
X0186003Y0131185D02*
X0186003Y0129483D01*
X0186286Y0129483D02*
X0185719Y0129483D01*
X0185059Y0129483D02*
X0184492Y0129483D01*
X0184775Y0129483D02*
X0184775Y0130618D01*
X0184492Y0130618D01*
X0184775Y0131185D02*
X0184775Y0131468D01*
X0185719Y0131185D02*
X0186003Y0131185D01*
X0183784Y0130334D02*
X0183784Y0129483D01*
X0183217Y0129483D02*
X0183217Y0130334D01*
X0183501Y0130618D01*
X0183784Y0130334D01*
X0183217Y0130334D02*
X0182934Y0130618D01*
X0182650Y0130618D01*
X0182650Y0129483D01*
X0182934Y0127618D02*
X0182650Y0127334D01*
X0182650Y0126767D01*
X0182934Y0126483D01*
X0183501Y0126483D01*
X0183784Y0126767D01*
X0183784Y0127334D01*
X0183501Y0127618D01*
X0182934Y0127618D01*
X0184492Y0127618D02*
X0184492Y0126767D01*
X0184775Y0126483D01*
X0185626Y0126483D01*
X0185626Y0127618D01*
X0186333Y0127618D02*
X0186900Y0127618D01*
X0186617Y0127901D02*
X0186617Y0126767D01*
X0186900Y0126483D01*
X0186900Y0218483D02*
X0186617Y0218767D01*
X0186617Y0219901D01*
X0186333Y0219618D02*
X0186900Y0219618D01*
X0185626Y0219618D02*
X0185626Y0218483D01*
X0184775Y0218483D01*
X0184492Y0218767D01*
X0184492Y0219618D01*
X0183784Y0219334D02*
X0183501Y0219618D01*
X0182934Y0219618D01*
X0182650Y0219334D01*
X0182650Y0218767D01*
X0182934Y0218483D01*
X0183501Y0218483D01*
X0183784Y0218767D01*
X0183784Y0219334D01*
X0183784Y0221483D02*
X0183784Y0222334D01*
X0183501Y0222618D01*
X0183217Y0222334D01*
X0183217Y0221483D01*
X0182650Y0221483D02*
X0182650Y0222618D01*
X0182934Y0222618D01*
X0183217Y0222334D01*
X0184492Y0222618D02*
X0184775Y0222618D01*
X0184775Y0221483D01*
X0184492Y0221483D02*
X0185059Y0221483D01*
X0185719Y0221483D02*
X0186286Y0221483D01*
X0186003Y0221483D02*
X0186003Y0223185D01*
X0185719Y0223185D01*
X0184775Y0223185D02*
X0184775Y0223468D01*
X0186947Y0223185D02*
X0187231Y0223185D01*
X0187231Y0221483D01*
X0187514Y0221483D02*
X0186947Y0221483D01*
X0186900Y0310483D02*
X0186617Y0310767D01*
X0186617Y0311901D01*
X0186333Y0311618D02*
X0186900Y0311618D01*
X0185626Y0311618D02*
X0185626Y0310483D01*
X0184775Y0310483D01*
X0184492Y0310767D01*
X0184492Y0311618D01*
X0183784Y0311334D02*
X0183501Y0311618D01*
X0182934Y0311618D01*
X0182650Y0311334D01*
X0182650Y0310767D01*
X0182934Y0310483D01*
X0183501Y0310483D01*
X0183784Y0310767D01*
X0183784Y0311334D01*
X0183784Y0313483D02*
X0183784Y0314334D01*
X0183501Y0314618D01*
X0183217Y0314334D01*
X0183217Y0313483D01*
X0182650Y0313483D02*
X0182650Y0314618D01*
X0182934Y0314618D01*
X0183217Y0314334D01*
X0184492Y0314618D02*
X0184775Y0314618D01*
X0184775Y0313483D01*
X0184492Y0313483D02*
X0185059Y0313483D01*
X0185719Y0313483D02*
X0186286Y0313483D01*
X0186003Y0313483D02*
X0186003Y0315185D01*
X0185719Y0315185D01*
X0184775Y0315185D02*
X0184775Y0315468D01*
X0186947Y0315185D02*
X0187231Y0315185D01*
X0187231Y0313483D01*
X0187514Y0313483D02*
X0186947Y0313483D01*
M02*
