G75*
%MOIN*%
%OFA0B0*%
%FSLAX25Y25*%
%IPPOS*%
%LPD*%
%AMOC8*
5,1,8,0,0,1.08239X$1,22.5*
%
%ADD10C,0.08200*%
D10*
X0088500Y0108333D03*
X0098500Y0108333D03*
X0108500Y0108333D03*
X0118500Y0108333D03*
X0118500Y0118333D03*
X0108500Y0118333D03*
X0098500Y0118333D03*
X0088500Y0118333D03*
X0128500Y0118333D03*
X0128500Y0108333D03*
X0138500Y0108333D03*
X0148500Y0108333D03*
X0158500Y0108333D03*
X0168500Y0108333D03*
X0178500Y0108333D03*
X0178500Y0118333D03*
X0168500Y0118333D03*
X0158500Y0118333D03*
X0148500Y0118333D03*
X0138500Y0118333D03*
X0190500Y0118333D03*
X0190500Y0108333D03*
X0200500Y0108333D03*
X0210500Y0108333D03*
X0220500Y0108333D03*
X0230500Y0108333D03*
X0240500Y0108333D03*
X0250500Y0108333D03*
X0260500Y0108333D03*
X0260500Y0118333D03*
X0250500Y0118333D03*
X0240500Y0118333D03*
X0230500Y0118333D03*
X0220500Y0118333D03*
X0210500Y0118333D03*
X0200500Y0118333D03*
X0270500Y0118333D03*
X0270500Y0108333D03*
X0280500Y0108333D03*
X0280500Y0118333D03*
X0292500Y0118333D03*
X0292500Y0108333D03*
X0302500Y0108333D03*
X0312500Y0108333D03*
X0322500Y0108333D03*
X0322500Y0118333D03*
X0312500Y0118333D03*
X0302500Y0118333D03*
X0332500Y0118333D03*
X0332500Y0108333D03*
X0342500Y0108333D03*
X0352500Y0108333D03*
X0362500Y0108333D03*
X0372500Y0108333D03*
X0382500Y0108333D03*
X0382500Y0118333D03*
X0372500Y0118333D03*
X0362500Y0118333D03*
X0352500Y0118333D03*
X0342500Y0118333D03*
X0342500Y0200333D03*
X0332500Y0200333D03*
X0332500Y0210333D03*
X0342500Y0210333D03*
X0352500Y0210333D03*
X0352500Y0200333D03*
X0362500Y0200333D03*
X0372500Y0200333D03*
X0382500Y0200333D03*
X0382500Y0210333D03*
X0372500Y0210333D03*
X0362500Y0210333D03*
X0322500Y0210333D03*
X0322500Y0200333D03*
X0312500Y0200333D03*
X0302500Y0200333D03*
X0292500Y0200333D03*
X0292500Y0210333D03*
X0302500Y0210333D03*
X0312500Y0210333D03*
X0280500Y0210333D03*
X0280500Y0200333D03*
X0270500Y0200333D03*
X0270500Y0210333D03*
X0260500Y0210333D03*
X0260500Y0200333D03*
X0250500Y0200333D03*
X0240500Y0200333D03*
X0230500Y0200333D03*
X0220500Y0200333D03*
X0210500Y0200333D03*
X0200500Y0200333D03*
X0190500Y0200333D03*
X0190500Y0210333D03*
X0200500Y0210333D03*
X0210500Y0210333D03*
X0220500Y0210333D03*
X0230500Y0210333D03*
X0240500Y0210333D03*
X0250500Y0210333D03*
X0178500Y0210333D03*
X0178500Y0200333D03*
X0168500Y0200333D03*
X0158500Y0200333D03*
X0148500Y0200333D03*
X0138500Y0200333D03*
X0128500Y0200333D03*
X0128500Y0210333D03*
X0138500Y0210333D03*
X0148500Y0210333D03*
X0158500Y0210333D03*
X0168500Y0210333D03*
X0118500Y0210333D03*
X0118500Y0200333D03*
X0108500Y0200333D03*
X0098500Y0200333D03*
X0088500Y0200333D03*
X0088500Y0210333D03*
X0098500Y0210333D03*
X0108500Y0210333D03*
X0108500Y0292333D03*
X0098500Y0292333D03*
X0088500Y0292333D03*
X0088500Y0302333D03*
X0098500Y0302333D03*
X0108500Y0302333D03*
X0118500Y0302333D03*
X0118500Y0292333D03*
X0128500Y0292333D03*
X0138500Y0292333D03*
X0148500Y0292333D03*
X0158500Y0292333D03*
X0168500Y0292333D03*
X0178500Y0292333D03*
X0178500Y0302333D03*
X0168500Y0302333D03*
X0158500Y0302333D03*
X0148500Y0302333D03*
X0138500Y0302333D03*
X0128500Y0302333D03*
X0190500Y0302333D03*
X0190500Y0292333D03*
X0200500Y0292333D03*
X0210500Y0292333D03*
X0220500Y0292333D03*
X0230500Y0292333D03*
X0240500Y0292333D03*
X0250500Y0292333D03*
X0260500Y0292333D03*
X0260500Y0302333D03*
X0250500Y0302333D03*
X0240500Y0302333D03*
X0230500Y0302333D03*
X0220500Y0302333D03*
X0210500Y0302333D03*
X0200500Y0302333D03*
X0270500Y0302333D03*
X0270500Y0292333D03*
X0280500Y0292333D03*
X0280500Y0302333D03*
X0292500Y0302333D03*
X0292500Y0292333D03*
X0302500Y0292333D03*
X0312500Y0292333D03*
X0322500Y0292333D03*
X0322500Y0302333D03*
X0312500Y0302333D03*
X0302500Y0302333D03*
X0332500Y0302333D03*
X0332500Y0292333D03*
X0342500Y0292333D03*
X0352500Y0292333D03*
X0362500Y0292333D03*
X0372500Y0292333D03*
X0382500Y0292333D03*
X0382500Y0302333D03*
X0372500Y0302333D03*
X0362500Y0302333D03*
X0352500Y0302333D03*
X0342500Y0302333D03*
X0342500Y0384333D03*
X0332500Y0384333D03*
X0322500Y0384333D03*
X0312500Y0384333D03*
X0302500Y0384333D03*
X0292500Y0384333D03*
X0280500Y0384333D03*
X0270500Y0384333D03*
X0260500Y0384333D03*
X0250500Y0384333D03*
X0240500Y0384333D03*
X0230500Y0384333D03*
X0220500Y0384333D03*
X0210500Y0384333D03*
X0200500Y0384333D03*
X0190500Y0384333D03*
X0190500Y0394333D03*
X0200500Y0394333D03*
X0210500Y0394333D03*
X0220500Y0394333D03*
X0230500Y0394333D03*
X0240500Y0394333D03*
X0250500Y0394333D03*
X0260500Y0394333D03*
X0270500Y0394333D03*
X0280500Y0394333D03*
X0292500Y0394333D03*
X0302500Y0394333D03*
X0312500Y0394333D03*
X0322500Y0394333D03*
X0332500Y0394333D03*
X0342500Y0394333D03*
X0352500Y0394333D03*
X0362500Y0394333D03*
X0372500Y0394333D03*
X0382500Y0394333D03*
X0382500Y0384333D03*
X0372500Y0384333D03*
X0362500Y0384333D03*
X0352500Y0384333D03*
X0178500Y0384333D03*
X0168500Y0384333D03*
X0158500Y0384333D03*
X0148500Y0384333D03*
X0138500Y0384333D03*
X0128500Y0384333D03*
X0118500Y0384333D03*
X0108500Y0384333D03*
X0098500Y0384333D03*
X0088500Y0384333D03*
X0088500Y0394333D03*
X0098500Y0394333D03*
X0108500Y0394333D03*
X0118500Y0394333D03*
X0128500Y0394333D03*
X0138500Y0394333D03*
X0148500Y0394333D03*
X0158500Y0394333D03*
X0168500Y0394333D03*
X0178500Y0394333D03*
M02*
