G75*
%MOIN*%
%OFA0B0*%
%FSLAX25Y25*%
%IPPOS*%
%LPD*%
%AMOC8*
5,1,8,0,0,1.08239X$1,22.5*
%
%ADD10R,0.05524X0.08674*%
%ADD11R,0.03162X0.06115*%
%ADD12C,0.08200*%
D10*
X0107476Y0038865D03*
X0129524Y0038865D03*
X0142479Y0038865D03*
X0164527Y0038865D03*
X0209476Y0038865D03*
X0231524Y0038865D03*
X0244479Y0038865D03*
X0266527Y0038865D03*
X0311476Y0038865D03*
X0333524Y0038865D03*
X0346479Y0038865D03*
X0368527Y0038865D03*
X0368527Y0130865D03*
X0346479Y0130865D03*
X0333524Y0130865D03*
X0311476Y0130865D03*
X0266527Y0130865D03*
X0244479Y0130865D03*
X0231524Y0130865D03*
X0209476Y0130865D03*
X0164527Y0130865D03*
X0142479Y0130865D03*
X0129524Y0130865D03*
X0107476Y0130865D03*
X0107476Y0222865D03*
X0129524Y0222865D03*
X0142479Y0222865D03*
X0164527Y0222865D03*
X0209476Y0222865D03*
X0231524Y0222865D03*
X0244479Y0222865D03*
X0266527Y0222865D03*
X0311476Y0222865D03*
X0333524Y0222865D03*
X0346479Y0222865D03*
X0368527Y0222865D03*
X0368527Y0314865D03*
X0346479Y0314865D03*
X0333524Y0314865D03*
X0311476Y0314865D03*
X0266527Y0314865D03*
X0244479Y0314865D03*
X0231524Y0314865D03*
X0209476Y0314865D03*
X0164527Y0314865D03*
X0142479Y0314865D03*
X0129524Y0314865D03*
X0107476Y0314865D03*
D11*
X0112594Y0329333D03*
X0116531Y0329333D03*
X0120469Y0329333D03*
X0124406Y0329333D03*
X0147598Y0329334D03*
X0151535Y0329334D03*
X0155472Y0329334D03*
X0159409Y0329334D03*
X0214594Y0329333D03*
X0218531Y0329333D03*
X0222469Y0329333D03*
X0226406Y0329333D03*
X0249598Y0329334D03*
X0253535Y0329334D03*
X0257472Y0329334D03*
X0261409Y0329334D03*
X0316594Y0329333D03*
X0320531Y0329333D03*
X0324469Y0329333D03*
X0328406Y0329333D03*
X0351598Y0329334D03*
X0355535Y0329334D03*
X0359472Y0329334D03*
X0363409Y0329334D03*
X0363409Y0237334D03*
X0359472Y0237334D03*
X0355535Y0237334D03*
X0351598Y0237334D03*
X0328406Y0237333D03*
X0324469Y0237333D03*
X0320531Y0237333D03*
X0316594Y0237333D03*
X0261409Y0237334D03*
X0257472Y0237334D03*
X0253535Y0237334D03*
X0249598Y0237334D03*
X0226406Y0237333D03*
X0222469Y0237333D03*
X0218531Y0237333D03*
X0214594Y0237333D03*
X0159409Y0237334D03*
X0155472Y0237334D03*
X0151535Y0237334D03*
X0147598Y0237334D03*
X0124406Y0237333D03*
X0120469Y0237333D03*
X0116531Y0237333D03*
X0112594Y0237333D03*
X0112594Y0145333D03*
X0116531Y0145333D03*
X0120469Y0145333D03*
X0124406Y0145333D03*
X0147598Y0145334D03*
X0151535Y0145334D03*
X0155472Y0145334D03*
X0159409Y0145334D03*
X0214594Y0145333D03*
X0218531Y0145333D03*
X0222469Y0145333D03*
X0226406Y0145333D03*
X0249598Y0145334D03*
X0253535Y0145334D03*
X0257472Y0145334D03*
X0261409Y0145334D03*
X0316594Y0145333D03*
X0320531Y0145333D03*
X0324469Y0145333D03*
X0328406Y0145333D03*
X0351598Y0145334D03*
X0355535Y0145334D03*
X0359472Y0145334D03*
X0363409Y0145334D03*
X0363409Y0053334D03*
X0359472Y0053334D03*
X0355535Y0053334D03*
X0351598Y0053334D03*
X0328406Y0053333D03*
X0324469Y0053333D03*
X0320531Y0053333D03*
X0316594Y0053333D03*
X0261409Y0053334D03*
X0257472Y0053334D03*
X0253535Y0053334D03*
X0249598Y0053334D03*
X0226406Y0053333D03*
X0222469Y0053333D03*
X0218531Y0053333D03*
X0214594Y0053333D03*
X0159409Y0053334D03*
X0155472Y0053334D03*
X0151535Y0053334D03*
X0147598Y0053334D03*
X0124406Y0053333D03*
X0120469Y0053333D03*
X0116531Y0053333D03*
X0112594Y0053333D03*
D12*
X0108500Y0108333D03*
X0098500Y0108333D03*
X0088500Y0108333D03*
X0088500Y0118333D03*
X0098500Y0118333D03*
X0108500Y0118333D03*
X0118500Y0118333D03*
X0118500Y0108333D03*
X0128500Y0108333D03*
X0138500Y0108333D03*
X0148500Y0108333D03*
X0158500Y0108333D03*
X0168500Y0108333D03*
X0178500Y0108333D03*
X0178500Y0118333D03*
X0168500Y0118333D03*
X0158500Y0118333D03*
X0148500Y0118333D03*
X0138500Y0118333D03*
X0128500Y0118333D03*
X0190500Y0118333D03*
X0190500Y0108333D03*
X0200500Y0108333D03*
X0210500Y0108333D03*
X0220500Y0108333D03*
X0230500Y0108333D03*
X0240500Y0108333D03*
X0250500Y0108333D03*
X0260500Y0108333D03*
X0260500Y0118333D03*
X0250500Y0118333D03*
X0240500Y0118333D03*
X0230500Y0118333D03*
X0220500Y0118333D03*
X0210500Y0118333D03*
X0200500Y0118333D03*
X0270500Y0118333D03*
X0270500Y0108333D03*
X0280500Y0108333D03*
X0280500Y0118333D03*
X0292500Y0118333D03*
X0292500Y0108333D03*
X0302500Y0108333D03*
X0312500Y0108333D03*
X0322500Y0108333D03*
X0322500Y0118333D03*
X0312500Y0118333D03*
X0302500Y0118333D03*
X0332500Y0118333D03*
X0332500Y0108333D03*
X0342500Y0108333D03*
X0352500Y0108333D03*
X0362500Y0108333D03*
X0372500Y0108333D03*
X0382500Y0108333D03*
X0382500Y0118333D03*
X0372500Y0118333D03*
X0362500Y0118333D03*
X0352500Y0118333D03*
X0342500Y0118333D03*
X0342500Y0200333D03*
X0332500Y0200333D03*
X0332500Y0210333D03*
X0342500Y0210333D03*
X0352500Y0210333D03*
X0352500Y0200333D03*
X0362500Y0200333D03*
X0372500Y0200333D03*
X0382500Y0200333D03*
X0382500Y0210333D03*
X0372500Y0210333D03*
X0362500Y0210333D03*
X0322500Y0210333D03*
X0322500Y0200333D03*
X0312500Y0200333D03*
X0302500Y0200333D03*
X0292500Y0200333D03*
X0292500Y0210333D03*
X0302500Y0210333D03*
X0312500Y0210333D03*
X0280500Y0210333D03*
X0280500Y0200333D03*
X0270500Y0200333D03*
X0270500Y0210333D03*
X0260500Y0210333D03*
X0260500Y0200333D03*
X0250500Y0200333D03*
X0240500Y0200333D03*
X0230500Y0200333D03*
X0220500Y0200333D03*
X0210500Y0200333D03*
X0200500Y0200333D03*
X0190500Y0200333D03*
X0190500Y0210333D03*
X0200500Y0210333D03*
X0210500Y0210333D03*
X0220500Y0210333D03*
X0230500Y0210333D03*
X0240500Y0210333D03*
X0250500Y0210333D03*
X0178500Y0210333D03*
X0178500Y0200333D03*
X0168500Y0200333D03*
X0158500Y0200333D03*
X0148500Y0200333D03*
X0138500Y0200333D03*
X0128500Y0200333D03*
X0128500Y0210333D03*
X0138500Y0210333D03*
X0148500Y0210333D03*
X0158500Y0210333D03*
X0168500Y0210333D03*
X0118500Y0210333D03*
X0118500Y0200333D03*
X0108500Y0200333D03*
X0098500Y0200333D03*
X0088500Y0200333D03*
X0088500Y0210333D03*
X0098500Y0210333D03*
X0108500Y0210333D03*
X0108500Y0292333D03*
X0098500Y0292333D03*
X0088500Y0292333D03*
X0088500Y0302333D03*
X0098500Y0302333D03*
X0108500Y0302333D03*
X0118500Y0302333D03*
X0118500Y0292333D03*
X0128500Y0292333D03*
X0138500Y0292333D03*
X0148500Y0292333D03*
X0158500Y0292333D03*
X0168500Y0292333D03*
X0178500Y0292333D03*
X0178500Y0302333D03*
X0168500Y0302333D03*
X0158500Y0302333D03*
X0148500Y0302333D03*
X0138500Y0302333D03*
X0128500Y0302333D03*
X0190500Y0302333D03*
X0190500Y0292333D03*
X0200500Y0292333D03*
X0210500Y0292333D03*
X0220500Y0292333D03*
X0230500Y0292333D03*
X0240500Y0292333D03*
X0250500Y0292333D03*
X0260500Y0292333D03*
X0260500Y0302333D03*
X0250500Y0302333D03*
X0240500Y0302333D03*
X0230500Y0302333D03*
X0220500Y0302333D03*
X0210500Y0302333D03*
X0200500Y0302333D03*
X0270500Y0302333D03*
X0270500Y0292333D03*
X0280500Y0292333D03*
X0280500Y0302333D03*
X0292500Y0302333D03*
X0292500Y0292333D03*
X0302500Y0292333D03*
X0312500Y0292333D03*
X0322500Y0292333D03*
X0322500Y0302333D03*
X0312500Y0302333D03*
X0302500Y0302333D03*
X0332500Y0302333D03*
X0332500Y0292333D03*
X0342500Y0292333D03*
X0352500Y0292333D03*
X0362500Y0292333D03*
X0372500Y0292333D03*
X0382500Y0292333D03*
X0382500Y0302333D03*
X0372500Y0302333D03*
X0362500Y0302333D03*
X0352500Y0302333D03*
X0342500Y0302333D03*
X0342500Y0384333D03*
X0332500Y0384333D03*
X0322500Y0384333D03*
X0312500Y0384333D03*
X0302500Y0384333D03*
X0292500Y0384333D03*
X0280500Y0384333D03*
X0270500Y0384333D03*
X0260500Y0384333D03*
X0250500Y0384333D03*
X0240500Y0384333D03*
X0230500Y0384333D03*
X0220500Y0384333D03*
X0210500Y0384333D03*
X0200500Y0384333D03*
X0190500Y0384333D03*
X0190500Y0394333D03*
X0200500Y0394333D03*
X0210500Y0394333D03*
X0220500Y0394333D03*
X0230500Y0394333D03*
X0240500Y0394333D03*
X0250500Y0394333D03*
X0260500Y0394333D03*
X0270500Y0394333D03*
X0280500Y0394333D03*
X0292500Y0394333D03*
X0302500Y0394333D03*
X0312500Y0394333D03*
X0322500Y0394333D03*
X0332500Y0394333D03*
X0342500Y0394333D03*
X0352500Y0394333D03*
X0362500Y0394333D03*
X0372500Y0394333D03*
X0382500Y0394333D03*
X0382500Y0384333D03*
X0372500Y0384333D03*
X0362500Y0384333D03*
X0352500Y0384333D03*
X0178500Y0384333D03*
X0168500Y0384333D03*
X0158500Y0384333D03*
X0148500Y0384333D03*
X0138500Y0384333D03*
X0128500Y0384333D03*
X0118500Y0384333D03*
X0108500Y0384333D03*
X0098500Y0384333D03*
X0088500Y0384333D03*
X0088500Y0394333D03*
X0098500Y0394333D03*
X0108500Y0394333D03*
X0118500Y0394333D03*
X0128500Y0394333D03*
X0138500Y0394333D03*
X0148500Y0394333D03*
X0158500Y0394333D03*
X0168500Y0394333D03*
X0178500Y0394333D03*
M02*
