%
M48
M72
T01C0.0150
T02C0.0400
%
T01
X12350Y6833
X14050Y5333
X22550Y6833
X24250Y5333
X32750Y6833
X34450Y5333
X34450Y14533
X32750Y16033
X34450Y23733
X32750Y25233
X34450Y32933
X32750Y34433
X24250Y32933
X22550Y34433
X14050Y32933
X12350Y34433
X12350Y25233
X14050Y23733
X12350Y16033
X14050Y14533
X22550Y16033
X24250Y14533
X24250Y23733
X22550Y25233
T02
X8850Y10833
X9850Y10833
X10850Y10833
X11850Y10833
X11850Y11833
X10850Y11833
X9850Y11833
X8850Y11833
X12850Y11833
X12850Y10833
X13850Y10833
X14850Y10833
X15850Y10833
X16850Y10833
X17850Y10833
X17850Y11833
X16850Y11833
X15850Y11833
X14850Y11833
X13850Y11833
X19050Y11833
X19050Y10833
X20050Y10833
X21050Y10833
X22050Y10833
X23050Y10833
X24050Y10833
X25050Y10833
X26050Y10833
X26050Y11833
X25050Y11833
X24050Y11833
X23050Y11833
X22050Y11833
X21050Y11833
X20050Y11833
X27050Y11833
X27050Y10833
X28050Y10833
X28050Y11833
X29250Y11833
X29250Y10833
X30250Y10833
X31250Y10833
X32250Y10833
X32250Y11833
X31250Y11833
X30250Y11833
X33250Y11833
X33250Y10833
X34250Y10833
X35250Y10833
X36250Y10833
X37250Y10833
X38250Y10833
X38250Y11833
X37250Y11833
X36250Y11833
X35250Y11833
X34250Y11833
X34250Y20033
X33250Y20033
X33250Y21033
X34250Y21033
X35250Y21033
X35250Y20033
X36250Y20033
X37250Y20033
X38250Y20033
X38250Y21033
X37250Y21033
X36250Y21033
X32250Y21033
X32250Y20033
X31250Y20033
X30250Y20033
X29250Y20033
X29250Y21033
X30250Y21033
X31250Y21033
X28050Y21033
X28050Y20033
X27050Y20033
X27050Y21033
X26050Y21033
X26050Y20033
X25050Y20033
X24050Y20033
X23050Y20033
X22050Y20033
X21050Y20033
X20050Y20033
X19050Y20033
X19050Y21033
X20050Y21033
X21050Y21033
X22050Y21033
X23050Y21033
X24050Y21033
X25050Y21033
X17850Y21033
X17850Y20033
X16850Y20033
X15850Y20033
X14850Y20033
X13850Y20033
X12850Y20033
X12850Y21033
X13850Y21033
X14850Y21033
X15850Y21033
X16850Y21033
X11850Y21033
X11850Y20033
X10850Y20033
X9850Y20033
X8850Y20033
X8850Y21033
X9850Y21033
X10850Y21033
X10850Y29233
X9850Y29233
X8850Y29233
X8850Y30233
X9850Y30233
X10850Y30233
X11850Y30233
X11850Y29233
X12850Y29233
X13850Y29233
X14850Y29233
X15850Y29233
X16850Y29233
X17850Y29233
X17850Y30233
X16850Y30233
X15850Y30233
X14850Y30233
X13850Y30233
X12850Y30233
X19050Y30233
X19050Y29233
X20050Y29233
X21050Y29233
X22050Y29233
X23050Y29233
X24050Y29233
X25050Y29233
X26050Y29233
X26050Y30233
X25050Y30233
X24050Y30233
X23050Y30233
X22050Y30233
X21050Y30233
X20050Y30233
X27050Y30233
X27050Y29233
X28050Y29233
X28050Y30233
X29250Y30233
X29250Y29233
X30250Y29233
X31250Y29233
X32250Y29233
X32250Y30233
X31250Y30233
X30250Y30233
X33250Y30233
X33250Y29233
X34250Y29233
X35250Y29233
X36250Y29233
X37250Y29233
X38250Y29233
X38250Y30233
X37250Y30233
X36250Y30233
X35250Y30233
X34250Y30233
X34250Y38433
X33250Y38433
X32250Y38433
X31250Y38433
X30250Y38433
X29250Y38433
X28050Y38433
X27050Y38433
X26050Y38433
X25050Y38433
X24050Y38433
X23050Y38433
X22050Y38433
X21050Y38433
X20050Y38433
X19050Y38433
X19050Y39433
X20050Y39433
X21050Y39433
X22050Y39433
X23050Y39433
X24050Y39433
X25050Y39433
X26050Y39433
X27050Y39433
X28050Y39433
X29250Y39433
X30250Y39433
X31250Y39433
X32250Y39433
X33250Y39433
X34250Y39433
X35250Y39433
X36250Y39433
X37250Y39433
X38250Y39433
X38250Y38433
X37250Y38433
X36250Y38433
X35250Y38433
X17850Y38433
X16850Y38433
X15850Y38433
X14850Y38433
X13850Y38433
X12850Y38433
X11850Y38433
X10850Y38433
X9850Y38433
X8850Y38433
X8850Y39433
X9850Y39433
X10850Y39433
X11850Y39433
X12850Y39433
X13850Y39433
X14850Y39433
X15850Y39433
X16850Y39433
X17850Y39433
M30
