G75*
%MOIN*%
%OFA0B0*%
%FSLAX25Y25*%
%IPPOS*%
%LPD*%
%AMOC8*
5,1,8,0,0,1.08239X$1,22.5*
%
%ADD10R,0.04724X0.07874*%
%ADD11R,0.02362X0.05315*%
D10*
X0107476Y0038865D03*
X0129524Y0038865D03*
X0142479Y0038865D03*
X0164527Y0038865D03*
X0209476Y0038865D03*
X0231524Y0038865D03*
X0244479Y0038865D03*
X0266527Y0038865D03*
X0311476Y0038865D03*
X0333524Y0038865D03*
X0346479Y0038865D03*
X0368527Y0038865D03*
X0368527Y0130865D03*
X0346479Y0130865D03*
X0333524Y0130865D03*
X0311476Y0130865D03*
X0266527Y0130865D03*
X0244479Y0130865D03*
X0231524Y0130865D03*
X0209476Y0130865D03*
X0164527Y0130865D03*
X0142479Y0130865D03*
X0129524Y0130865D03*
X0107476Y0130865D03*
X0107476Y0222865D03*
X0129524Y0222865D03*
X0142479Y0222865D03*
X0164527Y0222865D03*
X0209476Y0222865D03*
X0231524Y0222865D03*
X0244479Y0222865D03*
X0266527Y0222865D03*
X0311476Y0222865D03*
X0333524Y0222865D03*
X0346479Y0222865D03*
X0368527Y0222865D03*
X0368527Y0314865D03*
X0346479Y0314865D03*
X0333524Y0314865D03*
X0311476Y0314865D03*
X0266527Y0314865D03*
X0244479Y0314865D03*
X0231524Y0314865D03*
X0209476Y0314865D03*
X0164527Y0314865D03*
X0142479Y0314865D03*
X0129524Y0314865D03*
X0107476Y0314865D03*
D11*
X0112594Y0329333D03*
X0116531Y0329333D03*
X0120469Y0329333D03*
X0124406Y0329333D03*
X0147598Y0329334D03*
X0151535Y0329334D03*
X0155472Y0329334D03*
X0159409Y0329334D03*
X0214594Y0329333D03*
X0218531Y0329333D03*
X0222469Y0329333D03*
X0226406Y0329333D03*
X0249598Y0329334D03*
X0253535Y0329334D03*
X0257472Y0329334D03*
X0261409Y0329334D03*
X0316594Y0329333D03*
X0320531Y0329333D03*
X0324469Y0329333D03*
X0328406Y0329333D03*
X0351598Y0329334D03*
X0355535Y0329334D03*
X0359472Y0329334D03*
X0363409Y0329334D03*
X0363409Y0237334D03*
X0359472Y0237334D03*
X0355535Y0237334D03*
X0351598Y0237334D03*
X0328406Y0237333D03*
X0324469Y0237333D03*
X0320531Y0237333D03*
X0316594Y0237333D03*
X0261409Y0237334D03*
X0257472Y0237334D03*
X0253535Y0237334D03*
X0249598Y0237334D03*
X0226406Y0237333D03*
X0222469Y0237333D03*
X0218531Y0237333D03*
X0214594Y0237333D03*
X0159409Y0237334D03*
X0155472Y0237334D03*
X0151535Y0237334D03*
X0147598Y0237334D03*
X0124406Y0237333D03*
X0120469Y0237333D03*
X0116531Y0237333D03*
X0112594Y0237333D03*
X0112594Y0145333D03*
X0116531Y0145333D03*
X0120469Y0145333D03*
X0124406Y0145333D03*
X0147598Y0145334D03*
X0151535Y0145334D03*
X0155472Y0145334D03*
X0159409Y0145334D03*
X0214594Y0145333D03*
X0218531Y0145333D03*
X0222469Y0145333D03*
X0226406Y0145333D03*
X0249598Y0145334D03*
X0253535Y0145334D03*
X0257472Y0145334D03*
X0261409Y0145334D03*
X0316594Y0145333D03*
X0320531Y0145333D03*
X0324469Y0145333D03*
X0328406Y0145333D03*
X0351598Y0145334D03*
X0355535Y0145334D03*
X0359472Y0145334D03*
X0363409Y0145334D03*
X0363409Y0053334D03*
X0359472Y0053334D03*
X0355535Y0053334D03*
X0351598Y0053334D03*
X0328406Y0053333D03*
X0324469Y0053333D03*
X0320531Y0053333D03*
X0316594Y0053333D03*
X0261409Y0053334D03*
X0257472Y0053334D03*
X0253535Y0053334D03*
X0249598Y0053334D03*
X0226406Y0053333D03*
X0222469Y0053333D03*
X0218531Y0053333D03*
X0214594Y0053333D03*
X0159409Y0053334D03*
X0155472Y0053334D03*
X0151535Y0053334D03*
X0147598Y0053334D03*
X0124406Y0053333D03*
X0120469Y0053333D03*
X0116531Y0053333D03*
X0112594Y0053333D03*
M02*
